<?xml version="1.0" encoding="UTF-8" standalone="no"?><!DOCTYPE svg PUBLIC "-//W3C//DTD SVG 1.1//EN" "http://www.w3.org/Graphics/SVG/1.1/DTD/svg11.dtd"><svg width="100%" height="100%" viewBox="0 0 1500 1500" version="1.1" xmlns="http://www.w3.org/2000/svg" xmlns:xlink="http://www.w3.org/1999/xlink" xml:space="preserve" xmlns:serif="http://www.serif.com/" style="fill-rule:evenodd;clip-rule:evenodd;stroke-linecap:round;stroke-linejoin:round;stroke-miterlimit:1.5;"><g id="Dental"><g id="Brush"><g id="bristles"><path d="M1034.95,407.14l56.356,-1.723" style="fill:none;stroke:#666;stroke-width:8px;"/><path d="M1035.37,420.886l56.356,-1.723" style="fill:none;stroke:#666;stroke-width:8px;"/><path d="M1035.79,434.631l56.356,-1.723" style="fill:none;stroke:#666;stroke-width:8px;"/><path d="M1036.21,448.377l56.356,-1.724" style="fill:none;stroke:#666;stroke-width:8px;"/><path d="M1034.53,393.395l56.356,-1.723" style="fill:none;stroke:#666;stroke-width:8px;"/><path d="M1034.11,379.65l56.356,-1.724" style="fill:none;stroke:#666;stroke-width:8px;"/><path d="M1033.69,365.904l56.356,-1.723" style="fill:none;stroke:#666;stroke-width:8px;"/><path d="M1033.27,352.159l56.356,-1.723" style="fill:none;stroke:#666;stroke-width:8px;"/><path d="M1032.85,338.414l56.356,-1.724" style="fill:none;stroke:#666;stroke-width:8px;"/></g><path id="body" d="M1126.4,990.073c0,0 -14.424,-325.268 -10.21,-410.839c1.779,-36.141 31.951,-66.577 35.492,-102.588c4.295,-43.677 -9.724,-159.474 -9.724,-159.474c-1.96,-17.555 -44.886,-12.511 -44.73,3.89c0,0 7.928,108.475 2.255,151.746c-4.931,37.62 -34.915,69.968 -36.289,107.885c-3.131,86.372 17.503,410.352 17.503,410.352c13.915,17.084 28.567,24.437 45.703,-0.972Z" style="fill:#666;"/></g><g id="Drill"><path d="M913.1,346.923c0,0 -74.884,238.043 -32.758,326.245c7.163,1.539 -84.821,-7.583 -82.918,-24.255c6.704,-68.952 69.143,-313.314 69.143,-313.314c16.769,-11.116 31.592,-2.098 46.533,11.324Z" style="fill:#666;"/><path d="M766.25,272.289l33.93,9.196" style="fill:none;stroke:#666;stroke-width:20px;stroke-linecap:butt;"/><path d="M857.213,296.605l-80.806,-21.525" style="fill:none;stroke:#666;stroke-width:10px;"/><path d="M864.446,341.214c0.936,1.908 -4.525,-9.453 -13.398,-12.521c-1.717,-16.859 12.214,-55.439 19.772,-58.301c14.782,-5.597 58.712,1.134 74.191,14.726c2.931,17.741 -3.237,55.928 -11.508,64.157c-11.245,-2.166 -24.735,6.379 -24.735,6.379" style="fill:#666;"/><path d="M898.487,888.39c-18.796,8.113 -95.643,3.876 -104.483,-4.145l-1.657,107.059c38.045,18.636 75.834,20.098 113.378,5.077l-7.238,-107.991Z" style="fill:#666;"/><path d="M883.863,681.997c-29.105,7.046 -78.33,-8.291 -86.469,-16.697l-3.222,208.132c7.347,7.175 83.692,16.062 103.82,6.961l-14.129,-198.396Z" style="fill:#666;"/></g><path id="Probe" d="M625,857.312l0,145c-18.685,5.949 -36.988,5.434 -55,0l0,-125l55,0l0,-5l-55,0l0,5l0,-5l0,-15l55,0l0,-5l0,5Zm-55,-5l0,-390c0,0 5.614,-25.076 23.75,-30l0,-27.5l67.5,-55c8.301,-5.949 8.264,-9.662 -2.5,-16.25l-87.5,-46.25l97.111,44.8c8.167,3.836 8.064,15.202 2.889,18.95c-17.018,12.325 -70,57.5 -70,57.5l0,23.75c19.169,5.208 23.75,30 23.75,30l0,390l-55,0l0,5l0,-5Z" style="fill:#666;"/><g id="Mirror"><path id="Mirror1" serif:id="Mirror" d="M410,857.312l0,145c-18.685,5.949 -36.988,5.434 -55,0l0,-125l55,0l0,-5l-55,0l0,5l0,-5l0,-15l55,0l0,-5l0,5Zm-55,-5l0,-390c0,0 5.614,-25.076 23.75,-30l0,-42.5l7.5,0l0,42.5c19.169,5.208 23.75,30 23.75,30l0,390l-55,0l0,5l0,-5Z" style="fill:#666;"/><path d="M382.5,291.346c27.596,0 50,22.201 50,49.546c0,27.345 -22.404,49.545 -50,49.545c-27.596,0 -50,-22.2 -50,-49.545c0,-27.345 22.404,-49.546 50,-49.546Zm0,6.189c24.149,0 43.755,19.427 43.755,43.357c0,23.929 -19.606,43.357 -43.755,43.357c-24.149,0 -43.755,-19.428 -43.755,-43.357c0,-23.93 19.606,-43.357 43.755,-43.357Z" style="fill:#666;"/></g></g><text x="447.36px" y="1163.75px" style="font-family:'TrebuchetMS', 'Trebuchet MS', sans-serif;font-size:112.935px;fill:#666;">Dental Care</text><path d="M373.75,1105.33l12.5,12.5" style="fill:none;stroke:#666;stroke-width:2px;stroke-linecap:butt;"/><path d="M370,1105.33l12.5,12.5" style="fill:none;stroke:#666;stroke-width:2px;stroke-linecap:butt;"/></svg>