<?xml version="1.0" encoding="UTF-8" standalone="no"?><!DOCTYPE svg PUBLIC "-//W3C//DTD SVG 1.1//EN" "http://www.w3.org/Graphics/SVG/1.1/DTD/svg11.dtd"><svg width="100%" height="100%" viewBox="0 0 1500 1500" version="1.1" xmlns="http://www.w3.org/2000/svg" xmlns:xlink="http://www.w3.org/1999/xlink" xml:space="preserve" xmlns:serif="http://www.serif.com/" style="fill-rule:evenodd;clip-rule:evenodd;stroke-linejoin:round;stroke-miterlimit:1.5;"><g id="Flea"><path d="M419,524c-23.611,-5.043 -37.175,-15.987 -37,-35c4.302,-97.888 281.886,-249.752 451,-218c63.634,14.729 153.075,63.503 160.507,144.69c9.084,99.23 -89.491,208.942 -220.507,190.31c-78.149,-52.016 -151.553,-105.926 -207,-167c-81.892,107.809 -147,85 -147,85Zm426,-32l21,21c49.701,-35.752 71.535,-84.34 80,-142.5c0.209,-15.142 -27,-35.5 -27,-35.5c6.092,61.761 -22.415,122.778 -74,157Zm-57,-46l21,21c49.701,-35.752 75.359,-85.457 72,-152l-29,-15c2.744,27.815 0.498,53.249 -7.512,75.93c-9.775,27.679 -28.135,51.26 -56.488,70.07Zm-338.9,-38.99c8.978,0 16.266,7.289 16.266,16.266c0,8.978 -7.288,16.267 -16.266,16.267c-8.977,0 -16.266,-7.289 -16.266,-16.267c0,-8.977 7.289,-16.266 16.266,-16.266Z" style="fill:#666;"/><path d="M661,791l-7,-213l-83,114l-23.335,-254.601" style="fill:none;stroke:#666;stroke-width:28.38px;"/><path d="M480.589,496.726l41.411,177.119l-59,-65.76l30,182.915" style="fill:none;stroke:#666;stroke-width:28.38px;"/><path d="M686.665,496.726l113.335,226.274l151.088,-114.915l108,148.915l82.912,34" style="fill:none;stroke:#666;stroke-width:28.38px;"/><path d="M367.333,588l26.643,-74.274l24.024,74.274" style="fill:none;stroke:#666;stroke-width:28.38px;"/></g><text x="354.883px" y="1163.75px" style="font-family:'TrebuchetMS', 'Trebuchet MS', sans-serif;font-size:112.935px;fill:#666;">Flea P<tspan x="656.103px 699.998px " y="1163.75px 1163.75px ">re</tspan>vention</text><g id="Strike-out-red" serif:id="Strike out red"><path d="M531.616,169.406c-3.904,-5.799 -11.782,-7.338 -17.581,-3.434l-21.015,14.147c-5.8,3.904 -7.339,11.782 -3.435,17.581l488.224,725.26c3.904,5.8 11.782,7.339 17.582,3.435l21.015,-14.147c5.799,-3.904 7.338,-11.782 3.434,-17.581l-488.224,-725.261Z" style="fill:#f14624;"/><path id="Donut" d="M748.082,73.724c262.159,0 475,212.841 475,475c0,262.16 -212.841,475 -475,475c-262.16,0 -475,-212.84 -475,-475c0,-262.159 212.84,-475 475,-475Zm0,49.607c234.781,0 425.393,190.613 425.393,425.393c0,234.781 -190.612,425.394 -425.393,425.394c-234.781,0 -425.394,-190.613 -425.394,-425.394c0,-234.78 190.613,-425.393 425.394,-425.393Z" style="fill:#f14624;"/></g></svg>