<?xml version="1.0" encoding="UTF-8" standalone="no"?><!DOCTYPE svg PUBLIC "-//W3C//DTD SVG 1.1//EN" "http://www.w3.org/Graphics/SVG/1.1/DTD/svg11.dtd"><svg width="100%" height="100%" viewBox="0 0 1500 1500" version="1.1" xmlns="http://www.w3.org/2000/svg" xmlns:xlink="http://www.w3.org/1999/xlink" xml:space="preserve" xmlns:serif="http://www.serif.com/" style="fill-rule:evenodd;clip-rule:evenodd;stroke-linejoin:bevel;stroke-miterlimit:1.5;"><g id="Stethoscope"><path d="M788.336,237.175c-5.715,1.629 -12.197,2.486 -18.796,2.486c-20.748,0 -37.592,-8.316 -37.592,-18.559c0,-10.244 16.844,-18.56 37.592,-18.56c6.599,0 13.081,0.858 18.796,2.487l0,32.146Z" style="fill:#666;"/><path d="M769.849,202.543l0.309,0.002l0.309,0.003l0.309,0.004l0.308,0.006l0.308,0.007l0.308,0.008l0.308,0.009l0.307,0.011l0.307,0.012l0.307,0.013l0.306,0.014l0.306,0.016l0.306,0.016l0.305,0.018l0.305,0.02l0.304,0.02l0.305,0.022l0.303,0.023l0.303,0.024l0.303,0.025l0.302,0.027l0.302,0.027l0.301,0.029l0.301,0.031l0.3,0.031l0.299,0.033l0.299,0.033l0.299,0.035l0.298,0.037l0.297,0.037l0.296,0.039l0.296,0.039l0.296,0.041l0.294,0.043l0.294,0.043l0.293,0.044l0.293,0.046l0.291,0.047l0.291,0.048l0.291,0.049l0.289,0.051l0.289,0.051l0.287,0.053l0.287,0.054l0.286,0.055l0.286,0.057l0.284,0.057l0.284,0.059l0.282,0.059l0.282,0.061l0.281,0.062l0.28,0.064l0.278,0.064l0.278,0.065l0.277,0.067l0.276,0.068l0.275,0.069l0.274,0.07l0.273,0.071l0.271,0.073l0.271,0.073l0.269,0.075l0.269,0.076l0,32.146l-0.269,0.076l-0.269,0.074l-0.271,0.074l-0.271,0.072l-0.273,0.071l-0.274,0.071l-0.275,0.069l-0.276,0.067l-0.277,0.067l-0.278,0.066l-0.278,0.064l-0.28,0.063l-0.281,0.062l-0.282,0.061l-0.282,0.06l-0.284,0.059l-0.284,0.057l-0.286,0.056l-0.286,0.055l-0.287,0.054l-0.287,0.053l-0.289,0.052l-0.289,0.05l-0.291,0.049l-0.291,0.049l-0.291,0.046l-0.293,0.046l-0.293,0.045l-0.294,0.043l-0.294,0.042l-0.296,0.041l-0.296,0.04l-0.296,0.039l-0.297,0.037l-0.298,0.036l-0.299,0.035l-0.299,0.034l-0.299,0.033l-0.3,0.031l-0.301,0.03l-0.301,0.029l-0.302,0.028l-0.302,0.026l-0.303,0.026l-0.303,0.024l-0.303,0.023l-0.305,0.021l-0.304,0.021l-0.305,0.019l-0.305,0.018l-0.306,0.017l-0.306,0.016l-0.306,0.014l-0.307,0.013l-0.307,0.012l-0.307,0.01l-0.308,0.01l-0.308,0.008l-0.308,0.007l-0.308,0.005l-0.309,0.005l-0.309,0.003l-0.309,0.002l-0.309,0l-0.243,0l-0.243,-0.001l-0.242,-0.002l-0.242,-0.003l-0.241,-0.003l-0.241,-0.004l-0.241,-0.005l-0.24,-0.006l-0.24,-0.006l-0.24,-0.007l-0.239,-0.008l-0.239,-0.009l-0.476,-0.019l-0.474,-0.023l-0.473,-0.025l-0.471,-0.028l-0.469,-0.031l-0.468,-0.034l-0.465,-0.036l-0.464,-0.04l-0.462,-0.042l-0.459,-0.045l-0.458,-0.048l-0.455,-0.05l-0.454,-0.053l-0.451,-0.056l-0.449,-0.059l-0.447,-0.061l-0.445,-0.064l-0.443,-0.067l-0.44,-0.069l-0.438,-0.071l-0.435,-0.075l-0.433,-0.077l-0.43,-0.079l-0.428,-0.082l-0.426,-0.084l-0.423,-0.087l-0.42,-0.089l-0.418,-0.092l-0.415,-0.094l-0.412,-0.097l-0.409,-0.099l-0.407,-0.101l-0.404,-0.104l-0.401,-0.106l-0.398,-0.108l-0.197,-0.055l-0.198,-0.056l-0.196,-0.056l-0.196,-0.057l-0.195,-0.057l-0.194,-0.058l-0.193,-0.059l-0.193,-0.059l-0.192,-0.059l-0.191,-0.06l-0.19,-0.061l-0.189,-0.061l-0.189,-0.062l-0.188,-0.062l-0.187,-0.063l-0.186,-0.063l-0.186,-0.064l-0.185,-0.065l-0.183,-0.065l-0.184,-0.065l-0.182,-0.066l-0.181,-0.067l-0.181,-0.067l-0.179,-0.067l-0.179,-0.069l-0.178,-0.068l-0.177,-0.069l-0.176,-0.07l-0.176,-0.07l-0.174,-0.071l-0.174,-0.071l-0.173,-0.072l-0.172,-0.072l-0.171,-0.073l-0.17,-0.073l-0.169,-0.074l-0.168,-0.074l-0.168,-0.074l-0.166,-0.076l-0.166,-0.075l-0.164,-0.076l-0.164,-0.077l-0.163,-0.077l-0.162,-0.078l-0.161,-0.078l-0.159,-0.078l-0.159,-0.079l-0.159,-0.08l-0.157,-0.079l-0.156,-0.081l-0.155,-0.081l-0.154,-0.081l-0.153,-0.082l-0.153,-0.082l-0.151,-0.083l-0.15,-0.083l-0.149,-0.083l-0.149,-0.084l-0.147,-0.085l-0.146,-0.084l-0.145,-0.086l-0.144,-0.085l-0.144,-0.087l-0.142,-0.086l-0.141,-0.087l-0.14,-0.088l-0.139,-0.088l-0.138,-0.088l-0.137,-0.089l-0.136,-0.089l-0.135,-0.089l-0.133,-0.09l-0.133,-0.091l-0.132,-0.09l-0.13,-0.091l-0.13,-0.092l-0.128,-0.092l-0.127,-0.092l-0.127,-0.093l-0.125,-0.093l-0.124,-0.094l-0.122,-0.094l-0.122,-0.094l-0.121,-0.095l-0.119,-0.095l-0.119,-0.095l-0.117,-0.096l-0.116,-0.097l-0.115,-0.096l-0.114,-0.097l-0.112,-0.097l-0.112,-0.098l-0.11,-0.098l-0.109,-0.099l-0.108,-0.098l-0.107,-0.1l-0.106,-0.099l-0.104,-0.1l-0.103,-0.1l-0.102,-0.101l-0.101,-0.101l-0.1,-0.101l-0.098,-0.101l-0.097,-0.102l-0.096,-0.103l-0.095,-0.102l-0.094,-0.103l-0.092,-0.103l-0.091,-0.104l-0.09,-0.104l-0.089,-0.104l-0.087,-0.105l-0.086,-0.105l-0.085,-0.105l-0.083,-0.105l-0.083,-0.106l-0.081,-0.106l-0.08,-0.107l-0.078,-0.106l-0.077,-0.107l-0.076,-0.108l-0.075,-0.107l-0.073,-0.108l-0.072,-0.108l-0.071,-0.109l-0.069,-0.109l-0.068,-0.109l-0.067,-0.109l-0.065,-0.11l-0.064,-0.11l-0.063,-0.11l-0.061,-0.11l-0.06,-0.111l-0.059,-0.111l-0.057,-0.111l-0.056,-0.112l-0.055,-0.112l-0.053,-0.112l-0.052,-0.112l-0.05,-0.113l-0.049,-0.113l-0.048,-0.113l-0.046,-0.113l-0.045,-0.114l-0.043,-0.114l-0.043,-0.114l-0.04,-0.114l-0.039,-0.115l-0.038,-0.114l-0.037,-0.115l-0.035,-0.116l-0.033,-0.115l-0.032,-0.116l-0.031,-0.116l-0.029,-0.116l-0.028,-0.116l-0.026,-0.117l-0.025,-0.117l-0.023,-0.117l-0.022,-0.117l-0.021,-0.117l-0.018,-0.118l-0.018,-0.118l-0.016,-0.118l-0.014,-0.118l-0.013,-0.119l-0.012,-0.118l-0.01,-0.119l-0.008,-0.119l-0.007,-0.119l-0.005,-0.12l-0.004,-0.119l-0.002,-0.12l-0.001,-0.12l0.001,-0.12l0.002,-0.12l0.004,-0.12l0.005,-0.119l0.007,-0.119l0.008,-0.119l0.01,-0.119l0.012,-0.119l0.013,-0.118l0.014,-0.118l0.016,-0.118l0.018,-0.118l0.018,-0.118l0.021,-0.117l0.022,-0.118l0.023,-0.117l0.025,-0.117l0.026,-0.116l0.028,-0.116l0.029,-0.117l0.031,-0.116l0.032,-0.115l0.033,-0.116l0.035,-0.115l0.037,-0.115l0.038,-0.115l0.039,-0.114l0.04,-0.115l0.043,-0.114l0.043,-0.114l0.045,-0.113l0.046,-0.114l0.048,-0.113l0.049,-0.113l0.05,-0.112l0.052,-0.113l0.053,-0.112l0.055,-0.111l0.056,-0.112l0.057,-0.111l0.059,-0.111l0.06,-0.111l0.061,-0.11l0.063,-0.111l0.064,-0.11l0.065,-0.109l0.067,-0.11l0.068,-0.109l0.069,-0.109l0.071,-0.108l0.072,-0.108l0.073,-0.108l0.075,-0.108l0.076,-0.107l0.077,-0.107l0.078,-0.107l0.08,-0.106l0.081,-0.106l0.083,-0.106l0.083,-0.106l0.085,-0.105l0.086,-0.105l0.087,-0.104l0.089,-0.105l0.09,-0.103l0.091,-0.104l0.092,-0.103l0.094,-0.103l0.095,-0.103l0.096,-0.102l0.097,-0.102l0.098,-0.102l0.1,-0.101l0.101,-0.101l0.102,-0.1l0.103,-0.1l0.104,-0.1l0.106,-0.1l0.107,-0.099l0.108,-0.099l0.109,-0.098l0.11,-0.098l0.112,-0.098l0.112,-0.097l0.114,-0.097l0.115,-0.097l0.116,-0.096l0.117,-0.096l0.119,-0.095l0.119,-0.096l0.121,-0.094l0.122,-0.095l0.122,-0.094l0.124,-0.093l0.125,-0.093l0.127,-0.093l0.127,-0.092l0.128,-0.092l0.13,-0.092l0.13,-0.091l0.132,-0.091l0.133,-0.09l0.133,-0.09l0.135,-0.09l0.136,-0.089l0.137,-0.089l0.138,-0.088l0.139,-0.088l0.14,-0.087l0.141,-0.087l0.142,-0.087l0.144,-0.086l0.144,-0.086l0.145,-0.085l0.146,-0.085l0.147,-0.084l0.149,-0.084l0.149,-0.084l0.15,-0.083l0.151,-0.083l0.153,-0.082l0.153,-0.081l0.154,-0.082l0.155,-0.081l0.156,-0.08l0.157,-0.08l0.159,-0.079l0.159,-0.079l0.159,-0.079l0.161,-0.078l0.162,-0.077l0.163,-0.077l0.164,-0.077l0.164,-0.076l0.166,-0.076l0.166,-0.075l0.168,-0.075l0.168,-0.074l0.169,-0.073l0.17,-0.074l0.171,-0.072l0.172,-0.073l0.173,-0.071l0.174,-0.071l0.174,-0.071l0.176,-0.07l0.176,-0.07l0.177,-0.069l0.178,-0.069l0.179,-0.068l0.179,-0.068l0.181,-0.067l0.181,-0.066l0.182,-0.066l0.184,-0.066l0.183,-0.065l0.185,-0.064l0.186,-0.064l0.186,-0.063l0.187,-0.063l0.188,-0.063l0.189,-0.061l0.189,-0.062l0.19,-0.06l0.191,-0.06l0.192,-0.06l0.193,-0.059l0.193,-0.058l0.194,-0.058l0.195,-0.057l0.196,-0.057l0.196,-0.056l0.198,-0.056l0.197,-0.055l0.398,-0.108l0.401,-0.106l0.404,-0.104l0.407,-0.101l0.409,-0.099l0.412,-0.097l0.415,-0.094l0.418,-0.092l0.42,-0.089l0.423,-0.087l0.426,-0.085l0.428,-0.081l0.43,-0.08l0.433,-0.077l0.435,-0.074l0.438,-0.072l0.44,-0.069l0.443,-0.066l0.445,-0.064l0.447,-0.061l0.449,-0.059l0.451,-0.056l0.454,-0.053l0.455,-0.051l0.458,-0.047l0.459,-0.045l0.462,-0.043l0.464,-0.039l0.465,-0.037l0.468,-0.034l0.469,-0.031l0.471,-0.028l0.473,-0.025l0.474,-0.022l0.476,-0.02l0.239,-0.008l0.239,-0.008l0.24,-0.007l0.24,-0.007l0.24,-0.005l0.241,-0.005l0.241,-0.004l0.241,-0.004l0.242,-0.002l0.242,-0.002l0.243,-0.001l0.243,-0.001l0.309,0.001Z" style="fill:#666;"/><path d="M555.515,237.175c5.714,1.629 12.197,2.486 18.796,2.486c20.747,0 37.592,-8.316 37.592,-18.559c0,-10.244 -16.845,-18.56 -37.592,-18.56c-6.599,0 -13.082,0.858 -18.796,2.487l0,32.146Z" style="fill:#666;"/><path d="M574.554,202.543l0.242,0.001l0.243,0.002l0.241,0.002l0.242,0.004l0.241,0.004l0.241,0.005l0.24,0.005l0.24,0.007l0.24,0.007l0.239,0.008l0.238,0.008l0.477,0.02l0.474,0.022l0.473,0.025l0.471,0.028l0.469,0.031l0.468,0.034l0.465,0.037l0.464,0.039l0.461,0.043l0.46,0.045l0.458,0.047l0.455,0.051l0.454,0.053l0.451,0.056l0.449,0.059l0.447,0.061l0.445,0.064l0.442,0.066l0.441,0.069l0.437,0.072l0.436,0.074l0.433,0.077l0.43,0.08l0.428,0.081l0.426,0.085l0.422,0.087l0.421,0.089l0.417,0.092l0.415,0.094l0.412,0.097l0.41,0.099l0.407,0.101l0.403,0.104l0.401,0.106l0.398,0.108l0.198,0.055l0.197,0.056l0.197,0.056l0.195,0.057l0.195,0.057l0.194,0.058l0.194,0.058l0.192,0.059l0.192,0.06l0.191,0.06l0.191,0.06l0.189,0.062l0.189,0.061l0.188,0.063l0.187,0.063l0.186,0.063l0.186,0.064l0.184,0.064l0.184,0.065l0.183,0.066l0.182,0.066l0.182,0.066l0.18,0.067l0.18,0.068l0.179,0.068l0.178,0.069l0.177,0.069l0.176,0.07l0.176,0.07l0.174,0.071l0.174,0.071l0.172,0.071l0.172,0.073l0.171,0.072l0.17,0.074l0.17,0.073l0.168,0.074l0.167,0.075l0.167,0.075l0.165,0.076l0.165,0.076l0.164,0.077l0.163,0.077l0.161,0.077l0.161,0.078l0.16,0.079l0.159,0.079l0.158,0.079l0.157,0.08l0.156,0.08l0.156,0.081l0.154,0.082l0.153,0.081l0.152,0.082l0.152,0.083l0.15,0.083l0.149,0.084l0.148,0.084l0.148,0.084l0.146,0.085l0.145,0.085l0.144,0.086l0.143,0.086l0.143,0.087l0.141,0.087l0.14,0.087l0.139,0.088l0.138,0.088l0.137,0.089l0.136,0.089l0.134,0.09l0.134,0.09l0.133,0.09l0.131,0.091l0.131,0.091l0.129,0.092l0.129,0.092l0.127,0.092l0.126,0.093l0.125,0.093l0.124,0.093l0.123,0.094l0.122,0.095l0.12,0.094l0.12,0.096l0.118,0.095l0.118,0.096l0.116,0.096l0.115,0.097l0.113,0.097l0.113,0.097l0.111,0.098l0.111,0.098l0.109,0.098l0.108,0.099l0.107,0.099l0.105,0.1l0.105,0.1l0.103,0.1l0.102,0.1l0.101,0.101l0.1,0.101l0.098,0.102l0.097,0.102l0.096,0.102l0.095,0.103l0.094,0.103l0.092,0.103l0.091,0.104l0.09,0.103l0.088,0.105l0.088,0.104l0.086,0.105l0.085,0.105l0.083,0.106l0.082,0.106l0.081,0.106l0.08,0.106l0.079,0.107l0.077,0.107l0.076,0.107l0.074,0.108l0.074,0.108l0.072,0.108l0.07,0.108l0.07,0.109l0.068,0.109l0.066,0.11l0.066,0.109l0.064,0.11l0.062,0.111l0.062,0.11l0.06,0.111l0.059,0.111l0.057,0.111l0.056,0.112l0.054,0.111l0.054,0.112l0.051,0.113l0.051,0.112l0.049,0.113l0.048,0.113l0.046,0.114l0.045,0.113l0.043,0.114l0.042,0.114l0.041,0.115l0.039,0.114l0.038,0.115l0.036,0.115l0.035,0.115l0.034,0.116l0.032,0.115l0.031,0.116l0.029,0.117l0.028,0.116l0.026,0.116l0.025,0.117l0.023,0.117l0.022,0.118l0.02,0.117l0.019,0.118l0.018,0.118l0.016,0.118l0.014,0.118l0.013,0.118l0.011,0.119l0.01,0.119l0.009,0.119l0.007,0.119l0.005,0.119l0.004,0.12l0.002,0.12l0.001,0.12l-0.001,0.12l-0.002,0.12l-0.004,0.119l-0.005,0.12l-0.007,0.119l-0.009,0.119l-0.01,0.119l-0.011,0.118l-0.013,0.119l-0.014,0.118l-0.016,0.118l-0.018,0.118l-0.019,0.118l-0.02,0.117l-0.022,0.117l-0.023,0.117l-0.025,0.117l-0.026,0.117l-0.028,0.116l-0.029,0.116l-0.031,0.116l-0.032,0.116l-0.034,0.115l-0.035,0.116l-0.036,0.115l-0.038,0.114l-0.039,0.115l-0.041,0.114l-0.042,0.114l-0.043,0.114l-0.045,0.114l-0.046,0.113l-0.048,0.113l-0.049,0.113l-0.051,0.113l-0.051,0.112l-0.054,0.112l-0.054,0.112l-0.056,0.112l-0.057,0.111l-0.059,0.111l-0.06,0.111l-0.062,0.11l-0.062,0.11l-0.064,0.11l-0.066,0.11l-0.066,0.109l-0.068,0.109l-0.07,0.109l-0.07,0.109l-0.072,0.108l-0.074,0.108l-0.074,0.107l-0.076,0.108l-0.077,0.107l-0.079,0.106l-0.08,0.107l-0.081,0.106l-0.082,0.106l-0.083,0.105l-0.085,0.105l-0.086,0.105l-0.088,0.105l-0.088,0.104l-0.09,0.104l-0.091,0.104l-0.092,0.103l-0.094,0.103l-0.095,0.102l-0.096,0.103l-0.097,0.102l-0.098,0.101l-0.1,0.101l-0.101,0.101l-0.102,0.101l-0.103,0.1l-0.105,0.1l-0.105,0.099l-0.107,0.1l-0.108,0.098l-0.109,0.099l-0.111,0.098l-0.111,0.098l-0.113,0.097l-0.113,0.097l-0.115,0.096l-0.116,0.097l-0.118,0.096l-0.118,0.095l-0.12,0.095l-0.12,0.095l-0.122,0.094l-0.123,0.094l-0.124,0.094l-0.125,0.093l-0.126,0.093l-0.127,0.092l-0.129,0.092l-0.129,0.092l-0.131,0.091l-0.131,0.09l-0.133,0.091l-0.134,0.09l-0.134,0.089l-0.136,0.089l-0.137,0.089l-0.138,0.088l-0.139,0.088l-0.14,0.088l-0.141,0.087l-0.143,0.086l-0.143,0.087l-0.144,0.085l-0.145,0.086l-0.146,0.084l-0.148,0.085l-0.148,0.084l-0.149,0.083l-0.15,0.083l-0.152,0.083l-0.152,0.082l-0.153,0.082l-0.154,0.081l-0.156,0.081l-0.156,0.081l-0.157,0.079l-0.158,0.08l-0.159,0.079l-0.16,0.078l-0.161,0.078l-0.161,0.078l-0.163,0.077l-0.164,0.077l-0.165,0.076l-0.165,0.075l-0.167,0.076l-0.167,0.074l-0.168,0.074l-0.17,0.074l-0.17,0.073l-0.171,0.073l-0.172,0.072l-0.172,0.072l-0.174,0.071l-0.174,0.071l-0.176,0.07l-0.176,0.07l-0.177,0.069l-0.178,0.068l-0.179,0.069l-0.18,0.067l-0.18,0.067l-0.182,0.067l-0.182,0.066l-0.183,0.065l-0.184,0.065l-0.184,0.065l-0.186,0.064l-0.186,0.063l-0.187,0.063l-0.188,0.062l-0.189,0.062l-0.189,0.061l-0.191,0.061l-0.191,0.06l-0.192,0.059l-0.192,0.059l-0.194,0.059l-0.194,0.058l-0.195,0.057l-0.195,0.057l-0.197,0.056l-0.197,0.056l-0.198,0.055l-0.398,0.108l-0.401,0.106l-0.403,0.104l-0.407,0.101l-0.41,0.099l-0.412,0.097l-0.415,0.094l-0.417,0.092l-0.421,0.089l-0.422,0.087l-0.426,0.084l-0.428,0.082l-0.43,0.079l-0.433,0.077l-0.436,0.075l-0.437,0.071l-0.441,0.069l-0.442,0.067l-0.445,0.064l-0.447,0.061l-0.449,0.059l-0.451,0.056l-0.454,0.053l-0.455,0.05l-0.458,0.048l-0.46,0.045l-0.461,0.042l-0.464,0.04l-0.465,0.036l-0.468,0.034l-0.469,0.031l-0.471,0.028l-0.473,0.025l-0.474,0.023l-0.477,0.019l-0.238,0.009l-0.239,0.008l-0.24,0.007l-0.24,0.006l-0.24,0.006l-0.241,0.005l-0.241,0.004l-0.242,0.003l-0.241,0.003l-0.243,0.002l-0.242,0.001l-0.243,0l-0.309,0l-0.309,-0.002l-0.309,-0.003l-0.309,-0.005l-0.308,-0.005l-0.308,-0.007l-0.308,-0.008l-0.308,-0.01l-0.307,-0.01l-0.307,-0.012l-0.307,-0.013l-0.306,-0.014l-0.306,-0.016l-0.306,-0.017l-0.305,-0.018l-0.305,-0.019l-0.305,-0.021l-0.304,-0.021l-0.303,-0.023l-0.304,-0.024l-0.302,-0.026l-0.303,-0.026l-0.301,-0.028l-0.301,-0.029l-0.301,-0.03l-0.3,-0.031l-0.3,-0.033l-0.299,-0.034l-0.298,-0.035l-0.298,-0.036l-0.297,-0.037l-0.297,-0.039l-0.296,-0.04l-0.295,-0.041l-0.294,-0.042l-0.294,-0.043l-0.293,-0.045l-0.293,-0.046l-0.292,-0.046l-0.291,-0.049l-0.29,-0.049l-0.289,-0.05l-0.289,-0.052l-0.288,-0.053l-0.287,-0.054l-0.286,-0.055l-0.285,-0.056l-0.284,-0.057l-0.284,-0.059l-0.283,-0.06l-0.281,-0.061l-0.281,-0.062l-0.28,-0.063l-0.279,-0.064l-0.278,-0.066l-0.276,-0.067l-0.276,-0.067l-0.275,-0.069l-0.274,-0.071l-0.273,-0.071l-0.272,-0.072l-0.27,-0.074l-0.27,-0.074l-0.268,-0.076l0,-32.146l0.268,-0.076l0.27,-0.075l0.27,-0.073l0.272,-0.073l0.273,-0.071l0.274,-0.07l0.275,-0.069l0.276,-0.068l0.276,-0.067l0.278,-0.065l0.279,-0.064l0.28,-0.064l0.281,-0.062l0.281,-0.061l0.283,-0.059l0.284,-0.059l0.284,-0.057l0.285,-0.057l0.286,-0.055l0.287,-0.054l0.288,-0.053l0.289,-0.051l0.289,-0.051l0.29,-0.049l0.291,-0.048l0.292,-0.047l0.293,-0.046l0.293,-0.044l0.294,-0.043l0.294,-0.043l0.295,-0.041l0.296,-0.039l0.297,-0.039l0.297,-0.037l0.298,-0.037l0.298,-0.035l0.299,-0.033l0.3,-0.033l0.3,-0.031l0.301,-0.031l0.301,-0.029l0.301,-0.027l0.303,-0.027l0.302,-0.025l0.304,-0.024l0.303,-0.023l0.304,-0.022l0.305,-0.02l0.305,-0.02l0.305,-0.018l0.306,-0.016l0.306,-0.016l0.306,-0.014l0.307,-0.013l0.307,-0.012l0.307,-0.011l0.308,-0.009l0.308,-0.008l0.308,-0.007l0.308,-0.006l0.309,-0.004l0.309,-0.003l0.309,-0.002l0.309,-0.001l0.243,0.001Z" style="fill:#666;"/><path d="M947.439,431.663c29.379,0 53.232,23.853 53.232,53.233c0,29.379 -23.853,53.232 -53.232,53.232c-29.38,0 -53.233,-23.853 -53.233,-53.232c0,-29.38 23.853,-53.233 53.233,-53.233Zm0,26.616c14.69,0 26.616,11.927 26.616,26.617c0,14.689 -11.926,26.616 -26.616,26.616c-14.69,0 -26.616,-11.927 -26.616,-26.616c0,-14.69 11.926,-26.617 26.616,-26.617Z" style="fill:#666;"/><path d="M600.134,616.665c22.504,13.992 37.297,23.179 71.791,25.56" style="fill:none;stroke:#666;stroke-width:12px;"/><path d="M567.262,221.102c0,0 -56.673,1.042 -60.573,28.997c-5.979,42.865 -27.725,148.253 12.776,260.9c24.553,68.292 88.255,129.357 152.46,131.226c64.206,-1.869 127.907,-62.934 152.461,-131.226c40.501,-112.647 18.755,-218.035 12.775,-260.9c-3.899,-27.955 -60.572,-28.997 -60.572,-28.997" style="fill:none;stroke:#666;stroke-width:30px;"/><path d="M671.925,642.225l0,155.437c8.892,128.941 265.841,130.882 275.514,-1.902l0,-284.761" style="fill:none;stroke:#666;stroke-width:30px;"/><path d="M743.717,616.665c-22.504,13.992 -37.297,23.179 -71.792,25.56l0,60.703l0,-60.703c-34.494,-2.381 -49.287,-11.568 -71.791,-25.56" style="fill:none;stroke:#666;stroke-width:40px;"/></g><text x="305.531px" y="1163.75px" style="font-family:'TrebuchetMS', 'Trebuchet MS', sans-serif;font-size:112.935px;fill:#666;">Internal Medicine</text><path id="Donut" d="M748.082,73.7c262.159,0 475,212.84 475,475c0,262.16 -212.841,475 -475,475c-262.16,0 -475,-212.84 -475,-475c0,-262.16 212.84,-475 475,-475Zm0,49.607c234.781,0 425.393,190.612 425.393,425.393c0,234.781 -190.612,425.393 -425.393,425.393c-234.781,0 -425.394,-190.612 -425.394,-425.393c0,-234.781 190.613,-425.393 425.394,-425.393Z" style="fill:#666;"/><path d="M387.975,1191.65l12.5,12.5" style="fill:none;stroke:#666;stroke-width:2px;stroke-linejoin:round;"/><path d="M384.225,1191.65l12.5,12.5" style="fill:none;stroke:#666;stroke-width:2px;stroke-linejoin:round;"/></svg>