<?xml version="1.0" encoding="UTF-8" standalone="no"?><!DOCTYPE svg PUBLIC "-//W3C//DTD SVG 1.1//EN" "http://www.w3.org/Graphics/SVG/1.1/DTD/svg11.dtd"><svg width="100%" height="100%" viewBox="0 0 1500 1500" version="1.1" xmlns="http://www.w3.org/2000/svg" xmlns:xlink="http://www.w3.org/1999/xlink" xml:space="preserve" xmlns:serif="http://www.serif.com/" style="fill-rule:evenodd;clip-rule:evenodd;stroke-linejoin:round;stroke-miterlimit:1.5;"><g id="Parasites"><g id="Giardia"><path d="M435.898,613.537c-6.961,16.45 -12.904,39.671 -15.325,68.731c-0.539,6.47 -5.327,15.005 -5.573,22.291" style="fill:none;stroke:#666;stroke-width:5px;"/><path d="M465.155,686.912c0.894,5.244 -0.588,11.186 -3.895,15.759c-4.346,6.958 -4.774,14.577 -4.464,22.321" style="fill:none;stroke:#666;stroke-width:5px;"/><path d="M505,711.5c-1.831,8.003 -1.215,19.936 0.557,25.567" style="fill:none;stroke:#666;stroke-width:5px;"/><path d="M503.75,705.81c6.995,6.691 11.294,21.048 13.274,23.224c3.842,4.222 10.476,6.216 10.476,6.216" style="fill:none;stroke:#666;stroke-width:5px;"/><path d="M517.632,663.228c6.428,7.244 5.293,30.614 9.752,39.473c6.743,13.397 18.828,16.504 21.827,32.972" style="fill:none;stroke:#666;stroke-width:5px;"/><path d="M529.706,618.645c0.679,19.44 12.263,37.464 20.898,53.87c4.592,8.725 4.904,17.757 14.396,24.613" style="fill:none;stroke:#666;stroke-width:5px;"/><path d="M486.517,549.915c-4.152,-13.264 -14.22,-21.031 -28.793,-24.613c-9.093,-2.25 -17.073,-0.395 -23.684,6.501" style="fill:none;stroke:#666;stroke-width:5px;"/><path d="M487.91,549.915c2.625,-7.512 11.315,-23.171 21.827,-29.722c10.74,-6.693 23.298,-4.169 25.077,-1.393" style="fill:none;stroke:#666;stroke-width:5px;"/><path d="M447.972,560.596c14.242,-16.486 57.585,-15.403 71.517,-4.18c13.932,11.223 14.164,48.994 12.074,71.517c-2.089,22.524 -20.356,49.304 -24.613,63.623c-2.119,7.128 5.732,25.6 -0.928,22.291c-12.152,-6.037 -62.307,-32.972 -71.982,-58.514c-9.675,-25.542 -0.309,-78.251 13.932,-94.737Zm14.984,0c9.551,0 17.306,12.966 17.306,28.938c0,15.971 -7.755,28.937 -17.306,28.937c-9.551,0 -17.306,-12.966 -17.306,-28.937c0,-15.972 7.755,-28.938 17.306,-28.938Zm42.478,0c9.551,0 17.306,12.966 17.306,28.938c0,15.971 -7.755,28.937 -17.306,28.937c-9.551,0 -17.306,-12.966 -17.306,-28.937c0,-15.972 7.755,-28.938 17.306,-28.938Z" style="fill:#666;"/></g><g id="egg2"><path d="M1062.59,443.013c20.286,17.297 18.708,52.506 -3.522,78.577c-22.23,26.071 -56.747,33.194 -77.033,15.897c-20.286,-17.297 -18.707,-52.506 3.522,-78.577c22.23,-26.071 56.747,-33.194 77.033,-15.897Z" style="fill:none;stroke:#666;stroke-width:5px;"/><circle cx="1006.92" cy="506.138" r="24.375" style="fill:#666;"/><circle cx="1041.92" cy="475.513" r="24.375" style="fill:#666;"/></g><g id="egg1-" serif:id="egg1 "><path d="M973.892,662.43c22.729,-13.932 55.718,-1.527 73.623,27.684c17.904,29.21 13.988,64.237 -8.741,78.168c-22.729,13.932 -55.719,1.527 -73.624,-27.684c-17.904,-29.21 -13.987,-64.237 8.742,-78.168Z" style="fill:none;stroke:#666;stroke-width:5px;"/><path d="M985.192,675.81c12.057,-6.919 31.089,3.568 42.472,23.405c11.383,19.837 10.835,41.56 -1.223,48.479c-12.057,6.919 -31.089,-3.568 -42.472,-23.405c-11.383,-19.837 -10.835,-41.56 1.223,-48.479Z" style="fill:#666;"/></g><path d="M902.301,251.615c0,0 -8.863,-25.951 -34.493,-39.547c-135.383,-24.316 -333.634,24.699 -325.038,175.421c13.999,117.019 125.758,142.625 256.405,137.212c89.08,-0.617 103.087,44.755 90.412,112.448c-41.555,142.813 -204.099,133.941 -244.396,124.495c-49.188,-23.445 -36.637,-63.499 -28.254,-85.674c20.73,-54.832 108.484,-74.317 128.555,-32.128c1.127,20.592 -29.462,41.291 -31.079,52.208c-1.077,7.272 -1.371,12.632 10.092,10.873c17.858,-4.871 46.774,-48.684 45.658,-67.64c3.228,-36.05 -110.263,-86.961 -178.655,13.93c-7.095,18.265 -29.32,65.277 -8.476,100.399c65.441,86.332 293.213,47.912 343.285,-93.706c33.623,-104.451 24.314,-176.752 -120.079,-174.026c-114.917,2.17 -184.808,-9.304 -204.841,-91.029c-19.205,-129.907 177.63,-168.371 300.904,-143.236Zm-26.841,-13.387c0,0 7.645,3.908 -16.23,-8.881c-115.516,-13.304 -291.063,22.978 -293.15,162.827c13.04,110.063 121.28,121.555 242.984,116.463c117.052,3.724 114.933,62.166 103.126,125.834c-53.297,155.976 -237.412,155.638 -266.999,140.56c-48.708,-15.164 -68.245,-68.16 -36.73,-116.464c51.475,-78.899 180.932,-49.715 137.031,13.387c-4.008,5.761 -22.603,26.773 -22.603,26.773c16.636,-4.581 37.769,-38.394 36.73,-56.224c-4.503,-31.354 -81.548,-65.972 -149.746,5.355c-9.263,9.689 -32.869,62.066 -15.539,93.706c48.783,89.068 267.442,47.329 319.4,-91c28.432,-75.695 18.536,-152.523 -115.972,-149.959c-54.778,1.045 -115.932,1.814 -155.397,-17.402c-49.306,-24.008 -58.282,-42.199 -66.396,-88.352c-5.623,-134.375 179.266,-180.784 299.491,-156.623Z" style="fill:#666;"/></g><text x="261.374px" y="1163.75px" style="font-family:'TrebuchetMS', 'Trebuchet MS', sans-serif;font-size:112.935px;fill:#666;">P<tspan x="315.054px 374.389px " y="1163.75px 1163.75px ">ar</tspan>asite P<tspan x="749.612px 793.506px " y="1163.75px 1163.75px ">re</tspan>vention</text><g id="Strike-out-red" serif:id="Strike out red"><path d="M531.616,169.406c-3.904,-5.799 -11.782,-7.338 -17.581,-3.434l-21.015,14.147c-5.8,3.904 -7.339,11.782 -3.435,17.581l488.224,725.26c3.904,5.8 11.782,7.339 17.582,3.435l21.015,-14.147c5.799,-3.904 7.338,-11.782 3.434,-17.581l-488.224,-725.261Z" style="fill:#f14624;"/><path id="Donut" d="M748.082,73.724c262.159,0 475,212.841 475,475c0,262.16 -212.841,475 -475,475c-262.16,0 -475,-212.84 -475,-475c0,-262.159 212.84,-475 475,-475Zm0,49.607c234.781,0 425.393,190.613 425.393,425.393c0,234.781 -190.612,425.394 -425.393,425.394c-234.781,0 -425.394,-190.613 -425.394,-425.394c0,-234.78 190.613,-425.393 425.394,-425.393Z" style="fill:#f14624;"/></g></svg>