<?xml version="1.0" encoding="UTF-8" standalone="no"?><!DOCTYPE svg PUBLIC "-//W3C//DTD SVG 1.1//EN" "http://www.w3.org/Graphics/SVG/1.1/DTD/svg11.dtd"><svg width="100%" height="100%" viewBox="0 0 1500 1500" version="1.1" xmlns="http://www.w3.org/2000/svg" xmlns:xlink="http://www.w3.org/1999/xlink" xml:space="preserve" xmlns:serif="http://www.serif.com/" style="fill-rule:evenodd;clip-rule:evenodd;stroke-linejoin:round;stroke-miterlimit:1.41421;"><g id="Scalpel"><path d="M795.056,526.293l-55.777,-0.127l-192.409,324.468c-22.199,42.543 35.643,68.942 57.53,34.64l190.656,-358.981Z" style="fill:#666;"/><path d="M749.561,509.035l54.94,-0.084l-3.778,7.039l-55.296,-0.035l4.134,-6.92Z" style="fill:#666;"/><path d="M784.665,450.06l-29.081,48.94l54.377,0l26.076,-49l-51.372,0.06Z" style="fill:#666;"/><path d="M842.557,438l11.58,-22l-49.501,0l-13.177,22l51.098,0Z" style="fill:#666;"/><path d="M961.586,219.051c-26.889,6.4 -110.79,54.137 -136.926,160.855c-0.638,2.604 -20.244,36.094 -20.244,36.094l11.584,0l50,-87l20,0l-49.963,87l18.1,0c0,0 107.781,-197.028 107.449,-196.949Z" style="fill:#666;"/></g><text x="296.487px" y="1163.75px" style="font-family:'TrebuchetMS', 'Trebuchet MS', sans-serif;font-size:112.935px;fill:#666;">Advanced Surgery</text><path id="Donut" d="M748.082,73.7c262.159,0 475,212.84 475,475c0,262.16 -212.841,475 -475,475c-262.16,0 -475,-212.84 -475,-475c0,-262.16 212.84,-475 475,-475Zm0,49.607c234.781,0 425.393,190.612 425.393,425.393c0,234.781 -190.612,425.393 -425.393,425.393c-234.781,0 -425.394,-190.612 -425.394,-425.393c0,-234.781 190.613,-425.393 425.394,-425.393Z" style="fill:#666;"/></svg>