<?xml version="1.0" encoding="UTF-8" standalone="no"?><!DOCTYPE svg PUBLIC "-//W3C//DTD SVG 1.1//EN" "http://www.w3.org/Graphics/SVG/1.1/DTD/svg11.dtd"><svg width="100%" height="100%" viewBox="0 0 1500 1500" version="1.1" xmlns="http://www.w3.org/2000/svg" xmlns:xlink="http://www.w3.org/1999/xlink" xml:space="preserve" xmlns:serif="http://www.serif.com/" style="fill-rule:evenodd;clip-rule:evenodd;stroke-linejoin:round;stroke-miterlimit:1.5;"><g id="Vaccine"><g id="Syringe"><path d="M716,346.593l64.163,0l0,27.163l14,0l-1,410.846l74.411,2.263l-0.411,26.032l-94,0l1,83.753l53,0l3,37.35l-164.163,0l3,-37.35l53,0l1,-83.753l-94,0l-0.41,-26.032l74.41,-2.263l-1,-410.846l14,0l0,-27.163Z" style="fill:none;stroke:#666;stroke-width:9.79px;"/><path d="M742.567,346.593l0,-161.592l11.029,-41.001l0,202.593l-11.029,0Z" style="fill:#666;"/><path d="M794.058,416.894l-58.058,0" style="fill:none;stroke:#666;stroke-width:9.79px;"/><path d="M794.058,436.006l-29.029,0" style="fill:none;stroke:#666;stroke-width:9.79px;"/><path d="M794.058,455.118l-29.029,0" style="fill:none;stroke:#666;stroke-width:9.79px;"/><path d="M794.058,474.23l-29.029,0" style="fill:none;stroke:#666;stroke-width:9.79px;"/><path d="M794.058,512.454l-29.029,0" style="fill:none;stroke:#666;stroke-width:9.79px;"/><path d="M794.058,493.342l-58.058,0" style="fill:none;stroke:#666;stroke-width:9.79px;"/><path d="M702.37,531.566l92.164,0l-1.371,255.095l74.411,2.232l-0.411,25.673l-94,0l1,82.599l53,0l3,36.835l-164.163,0l3,-36.835l53,0l1,-82.599l-94,0l-0.41,-25.673l74.41,-2.232l-0.63,-255.095Z" style="fill:#666;stroke:#666;stroke-width:9.79px;"/></g><g id="Vial"><path d="M572.392,482.75l-62.284,0l0,21.983c0.1,6.469 12.24,9.183 18.319,10.991l0,18.319c-13.782,0.432 -19.281,4.046 -21.983,18.319l0,128.233c-0.025,10.848 6.091,14.608 14.655,14.655l40.302,0c8.564,-0.047 14.68,-3.807 14.655,-14.655l0,-128.233c-2.702,-14.273 -8.201,-17.887 -21.983,-18.319l0,-18.319c6.079,-1.808 18.219,-4.522 18.319,-10.991l0,-21.983Z" style="fill:none;stroke:#666;stroke-width:5px;"/><path d="M576.056,581.672l-69.612,0.027l0,98.899c-0.025,10.846 6.091,14.605 14.655,14.652l40.302,0c8.564,-0.047 14.68,-3.806 14.655,-14.652l0,-98.926Z" style="fill:#666;"/><path d="M510.108,497.405l62.284,0" style="fill:none;stroke:#666;stroke-width:5px;"/></g></g><text x="459.963px" y="1163.75px" style="font-family:'TrebuchetMS', 'Trebuchet MS', sans-serif;font-size:112.935px;fill:#666;">V<tspan x="510.713px 570.048px " y="1163.75px 1163.75px ">ac</tspan>cination</text><path id="Donut" d="M748.082,73.7c262.159,0 475,212.84 475,475c0,262.16 -212.841,475 -475,475c-262.16,0 -475,-212.84 -475,-475c0,-262.16 212.84,-475 475,-475Zm0,49.607c234.781,0 425.393,190.612 425.393,425.393c0,234.781 -190.612,425.393 -425.393,425.393c-234.781,0 -425.394,-190.612 -425.394,-425.393c0,-234.781 190.613,-425.393 425.394,-425.393Z" style="fill:#666;"/></svg>