<?xml version="1.0" encoding="UTF-8" standalone="no"?><!DOCTYPE svg PUBLIC "-//W3C//DTD SVG 1.1//EN" "http://www.w3.org/Graphics/SVG/1.1/DTD/svg11.dtd"><svg width="100%" height="100%" viewBox="0 0 1500 1500" version="1.1" xmlns="http://www.w3.org/2000/svg" xmlns:xlink="http://www.w3.org/1999/xlink" xml:space="preserve" xmlns:serif="http://www.serif.com/" style="fill-rule:evenodd;clip-rule:evenodd;stroke-linecap:round;stroke-linejoin:round;stroke-miterlimit:1.5;"><g id="Xray"><path id="Combo" d="M740.457,966.691c0,0 34.138,0.428 0,0l355.793,3.123l-10.031,-332.726c-55.931,-39.999 -142.067,-169.705 -193.635,-210.623c-20.28,-131.26 -95.279,-207.789 -146.988,-307.597c-18.839,23.826 -23.341,61.951 -29.948,97.984c-18.814,-21.11 -29.732,-50.102 -54.451,-65.319c17.475,49.655 11.352,125.483 0,176.924c-58.137,34.604 -120.011,69.412 -166.03,133.378c-7.858,10.93 -10.817,24.961 -19.056,35.395c-21.237,26.874 -68.571,55.165 -106.172,76.223c-22.181,12.424 -65.803,11.569 -72.843,39.744c-3.597,14.413 5.446,22.207 5.408,30.625c-0.077,14.923 8.214,59.782 21.16,68.443c50.369,33.685 102.677,142.217 227.395,115.266c23.303,-5.039 70.483,-11.556 88.366,-9.095c28.124,3.878 47.805,59.949 59.897,84.387c11.658,23.584 21.53,44.03 31.721,63.621c0.9,0.101 4.205,0.182 9.414,0.247Z" style="fill:#666;fill-rule:nonzero;"/><path d="M922.368,556.176c12.185,14.006 31.986,74.599 45.694,93.175c7.674,10.399 27.416,19.8 27.416,27.416c0,7.616 -16.754,19.801 -27.416,18.278c-10.662,-1.524 -27.416,-24.37 -36.555,-27.417c-6.462,-2.154 -16.754,4.57 -18.278,9.139c-1.523,4.569 10.52,12.185 9.139,18.278c-1.38,6.092 -11.328,21.323 -17.421,18.277c-6.092,-3.046 -11.375,-25.893 -19.134,-36.555c-7.604,-10.45 -25.893,-18.277 -27.416,-27.416c-1.523,-9.139 10.519,-22.847 18.277,-27.416c7.759,-4.57 25.378,8.968 28.273,0c3.046,-9.437 -1.38,-47.184 0,-56.621c0.882,-6.028 13.422,-13.735 17.421,-9.138Z" style="fill:#fff;stroke:#000;stroke-width:1px;"/><path d="M927.032,738.042c2.285,-9.138 23.656,-33.508 35.698,-36.555c12.043,-3.046 27.731,8.835 36.555,18.278c7.843,8.392 9.106,23.888 18.278,36.555c3.573,4.935 5.911,16.8 0,18.277c-6.093,1.524 -27.416,-10.888 -36.555,-9.138c-8.783,1.681 -12.947,15.067 -18.278,19.636c-3.989,3.419 -9.138,7.78 -13.708,7.78c-4.569,0 -13.708,-2.526 -13.708,-7.78c0,-6.093 15.089,-20.933 13.708,-28.775c-1.38,-7.842 -24.275,-9.139 -21.99,-18.278Z" style="fill:#fff;stroke:#000;stroke-width:1px;"/><path d="M973.037,847.274c0,-6.092 1.594,-13.708 0,-18.277c-1.453,-4.164 -10.627,-4.858 -9.567,-9.139c1.452,-5.866 9.139,-23.011 18.277,-26.057c9.139,-3.047 27.417,1.913 36.555,7.779c9.139,5.866 10.662,19.801 18.278,27.417c7.615,7.615 25.893,12.185 27.416,18.277c1.523,6.093 -10.662,18.278 -18.277,18.278c-7.616,0 -18.278,-19.801 -27.417,-18.278c-9.138,1.523 -19.872,21.324 -27.416,27.416c-5.2,4.2 -14.874,13.709 -17.849,9.139c-2.975,-4.569 0,-27.416 0,-36.555Z" style="fill:#fff;stroke:#000;stroke-width:1px;"/><path d="M730.455,409.048c-14.426,3.149 -28.75,6.893 -43.344,9.139c-19.8,3.046 -53.956,-4.262 -75.46,9.138c-29.331,18.278 -63.77,77.563 -91.387,109.665c-24.761,28.781 -74.633,36.555 -91.388,54.833c-12.35,13.473 -31.985,30.462 -36.555,45.693c-4.376,14.589 0.248,36.555 0,45.694c-0.184,6.809 19.801,-21.324 27.416,-27.416c4.758,-3.806 13.97,-4.308 18.278,0c4.569,4.569 6.092,30.462 9.139,27.416c3.046,-3.046 -1.523,-36.555 9.138,-45.694c10.662,-9.138 41.125,-12.185 54.833,-9.138c12.616,2.803 19.8,25.893 27.416,27.416c7.616,1.523 12.185,-15.231 18.278,-18.278c5.449,-2.724 23.108,4.308 27.416,0c6.092,-6.092 0,-27.416 9.139,-36.555c9.138,-9.138 28.939,-8.84 36.554,-18.277c7.616,-9.437 26.049,-29.204 27.572,-20.065c1.523,9.138 -12.34,54.799 -18.433,74.897c-4.418,14.577 -25.893,24.37 -36.555,27.417c-9.262,2.646 -22.847,-9.139 -27.416,-9.139c-3.046,0 2.89,8.175 0,9.139c-4.569,1.523 -24.37,-4.57 -27.416,0c-3.046,4.569 17.307,22.31 9.139,27.416c-12.185,7.615 -62.449,18.277 -82.249,18.277c-13.623,0 -30.463,-19.8 -36.555,-18.277c-6.093,1.523 4.569,19.8 0,27.416c-4.569,7.616 -19.176,13.817 -9.139,18.277c13.708,6.093 54.905,24.793 91.388,18.278c42.647,-7.616 108.141,-39.601 146.219,-63.971c32.657,-20.901 59.402,-63.971 82.249,-82.249c15.957,-12.765 42.648,-31.986 54.833,-27.416c12.185,4.569 4.569,56.355 18.277,54.832c13.708,-1.523 56.356,-48.442 63.971,-63.971c5.057,-10.311 -20.769,-17.993 -18.277,-29.204c3.046,-13.708 43.775,-32.821 36.555,-53.045c-9.139,-25.595 -62.448,-86.818 -91.388,-100.526c-25.381,-12.023 -61.316,13.708 -82.248,18.278Zm-73.11,27.416c-3.047,-7.616 -57.879,22.847 -73.11,36.555c-12.194,10.974 -21.324,38.078 -18.278,45.694c3.047,7.615 27.498,8.151 36.555,0c15.231,-13.708 57.879,-74.633 54.833,-82.249Z" style="fill:#fff;stroke:#000;stroke-width:1px;"/></g><text x="282.591px" y="1163.75px" style="font-family:'TrebuchetMS', 'Trebuchet MS', sans-serif;font-size:112.935px;fill:#666;">Digital Diagnostics</text></svg>